# xmcd
#
# Track frame offsets: 
#        150
#        13022
#        22944
#        37490
#        52722
#        63421
#        74002
#        84218
#        99148
#        110875
#        128280
#        137544
#
# Disc length: 1969 seconds
#
# Revision: 0
# Processed by: cddbd v1.5.2PL0 Copyright (c) Steve Scherf et al.
# Submitted via: ExactAudioCopy v0.99pb4
#
DISCID=9507af0c
DTITLE=Various Artist - One Dozen Country Gospel Greats
DYEAR=1978
DGENRE=Gospel
TTITLE0=Billy Walker - Where No One Stands Alone
TTITLE1=Skeeter Davis - Try Jesus
TTITLE2=Claude Gray - Uncloudy day
TTITLE3=Dorsey Burnett - Magnificent Sanctuary Band
TTITLE4=Warner Mack - Home, Home, Sweet Home
TTITLE5=Jimmy Dickens - This World is Not My Home
TTITLE6=Ferlin Huskey - Wings of a Dove
TTITLE7=David Houston - Amazing Grace
TTITLE8=Bill Carlisle - I'll Fly Away
TTITLE9=Wilma Lee and Stoney - Hello Central Give Me Heaven
TTITLE10=George Jones - Boat of Life
TTITLE11=Martha Carson - Satisfied
EXTD=
EXTT0=
EXTT1=
EXTT2=
EXTT3=
EXTT4=
EXTT5=
EXTT6=
EXTT7=
EXTT8=
EXTT9=
EXTT10=
EXTT11=
PLAYORDER=
